<?xml version="1.0" encoding="UTF-8" standalone="no"?><!-- Generator: Gravit.io --><svg xmlns="http://www.w3.org/2000/svg" xmlns:xlink="http://www.w3.org/1999/xlink" style="isolation:isolate" viewBox="0 0 25 25" width="25pt" height="25pt"><defs><clipPath id="_clipPath_FEoAp4PVVpeSi90XasgCjy1PEmjB4IAV"><rect width="25" height="25"/></clipPath></defs><g clip-path="url(#_clipPath_FEoAp4PVVpeSi90XasgCjy1PEmjB4IAV)"><path d=" M 12.834 6.004 Q 14.002 5.959 14.348 6.43 Q 16.376 6.819 17.64 7.685 Q 18.218 8.389 17.867 9.674 L 17.603 9.887 L 17.073 9.935 Q 15.859 9.345 14.272 8.987 Q 13.875 9.07 14.007 9.485 L 14.007 10.432 L 14.007 12.397 L 14.007 14.363 Q 14.602 17.198 12.456 18.317 Q 11.347 19.116 8.747 18.98 Q 7.007 18.743 6.06 18.01 Q 4.997 17.348 5 16.02 Q 5.204 15.296 6.022 14.955 Q 6.607 14.634 7.838 14.718 Q 8.746 14.86 9.239 15.263 Q 9.882 15.642 9.693 16.541 Q 9.434 17.066 8.822 17.37 Q 8.438 17.58 7.801 17.631 Q 8.465 18.115 10.109 17.986 Q 11.159 17.814 11.736 17.346 Q 12.534 16.827 12.418 15.736 L 12.418 13.605 C 12.418 12.778 12.418 10.947 12.418 8.111 L 12.418 6.738 C 12.347 6.511 12.308 6.188 12.683 6.051 L 12.683 6.051 L 12.834 6.004 Z  M 10.563 10.882 C 11.354 10.81 11.814 11.124 11.661 11.616 L 11.661 11.616 L 11.244 11.924 L 10.563 11.971 L 10.147 11.805 C 9.919 11.695 9.895 11.497 9.92 11.332 L 9.92 11.332 L 10.261 10.977 L 10.563 10.882 Z  M 11.661 13.274 L 11.661 13.274 L 11.396 13.487 C 11.156 13.623 10.784 13.611 10.488 13.581 L 10.488 13.581 L 10.071 13.368 C 9.712 13.112 9.956 12.672 10.412 12.539 L 10.412 12.539 Q 11.812 12.799 11.661 13.274 Z  M 10.488 14.15 C 10.83 14.109 11.242 14.095 11.479 14.284 C 11.71 14.47 11.737 14.651 11.661 14.884 L 11.661 14.884 L 11.32 15.144 L 10.715 15.239 C 9.923 15.131 9.583 14.502 10.336 14.197 L 10.336 14.197 L 10.488 14.15 Z " fill-rule="evenodd" fill="rgb(0,0,0)" vector-effect="non-scaling-stroke" stroke-width="1" stroke="rgb(0,0,0)" stroke-linejoin="miter" stroke-linecap="square" stroke-miterlimit="3"/><path d=" M 187.5 50 Q 202.938 49.063 207.5 59 Q 234.292 67.208 251 85.5 Q 258.636 100.364 254 127.5 L 250.5 132 L 243.5 133 Q 227.462 120.538 206.5 113 Q 201.25 114.75 203 123.5 L 203 143.5 L 203 226.5 Q 210.862 286.362 182.5 310 Q 167.856 326.856 133.5 324 Q 110.511 318.989 98 303.5 Q 83.964 289.536 84 261.5 Q 86.7 246.2 97.5 239 Q 105.235 232.235 121.5 234 Q 133.496 237.004 140 245.5 Q 148.5 253.5 146 272.5 Q 142.585 283.585 134.5 290 Q 129.423 294.423 121 295.5 Q 129.773 305.727 151.5 303 Q 165.367 299.367 173 289.5 Q 183.535 278.535 182 255.5 L 182 210.5 L 182 94.5 L 182 65.5 C 181.063 60.707 180.547 53.885 185.5 51 L 185.5 51 L 187.5 50 Z  M 157.5 153 C 167.953 151.49 174.026 158.117 172 168.5 L 172 168.5 L 166.5 175 L 157.5 176 L 152 172.5 C 148.99 170.174 148.675 165.994 149 162.5 L 149 162.5 L 153.5 155 L 157.5 153 Z  M 158.5 187 C 169.21 185.874 174.002 193.489 172 203.5 L 172 203.5 L 168.5 208 C 165.333 210.879 160.42 210.627 156.5 210 L 156.5 210 L 151 205.5 C 146.25 200.091 149.482 190.789 155.5 188 L 155.5 188 L 158.5 187 Z  M 156.5 222 C 161.019 221.15 166.473 220.854 169.592 224.845 C 172.653 228.763 173.005 232.586 172 237.5 L 172 237.5 L 167.5 243 L 159.5 245 C 149.035 242.725 144.555 229.435 154.5 223 L 154.5 223 L 156.5 222 Z " fill-rule="evenodd" fill="rgb(252,252,252)"/></g></svg>